
<svg id="Layer_1" data-name="Layer 1" xmlns="http://www.w3.org/2000/svg" viewBox="0 0 24 24" stroke-width="1.5" width="24" height="24" color="#000000"><defs><style>.cls-637b74f4f95e86b59c579f04-1{fill:none;stroke:currentColor;stroke-miterlimit:10;}</style></defs><path class="cls-637b74f4f95e86b59c579f04-1" d="M12,18.67h0a6.56,6.56,0,0,1-4.73-6.3V7.65L12,6.27l4.81,1.38v4.7A6.58,6.58,0,0,1,12,18.67Z"></path><circle class="cls-637b74f4f95e86b59c579f04-1" cx="21.55" cy="12" r="0.95"></circle><circle class="cls-637b74f4f95e86b59c579f04-1" cx="2.45" cy="12" r="0.95"></circle><circle class="cls-637b74f4f95e86b59c579f04-1" cx="21.55" cy="2.45" r="0.95"></circle><circle class="cls-637b74f4f95e86b59c579f04-1" cx="2.45" cy="2.45" r="0.95"></circle><circle class="cls-637b74f4f95e86b59c579f04-1" cx="21.55" cy="21.55" r="0.95"></circle><circle class="cls-637b74f4f95e86b59c579f04-1" cx="2.45" cy="21.55" r="0.95"></circle><line class="cls-637b74f4f95e86b59c579f04-1" x1="3.41" y1="12" x2="7.23" y2="12"></line><line class="cls-637b74f4f95e86b59c579f04-1" x1="20.59" y1="12" x2="16.77" y2="12"></line><polyline class="cls-637b74f4f95e86b59c579f04-1" points="14.88 7.11 14.88 2.46 20.59 2.46"></polyline><polyline class="cls-637b74f4f95e86b59c579f04-1" points="9.14 7.23 9.14 2.46 3.41 2.46"></polyline><polyline class="cls-637b74f4f95e86b59c579f04-1" points="9.14 16.99 9.14 21.86 3.41 21.86"></polyline><polyline class="cls-637b74f4f95e86b59c579f04-1" points="14.86 16.97 14.86 21.86 20.59 21.86"></polyline></svg>